<svg xmlns="http://www.w3.org/2000/svg" viewBox="0 0 400 300" width="406" height="306" class="illustration styles_illustrationTablet__1DWOa"><g id="_292_card_payment_flatline" data-name="#292_card_payment_flatline"><path d="M198.73,88.76h23.49a4.07,4.07,0,0,1,4.07,4.07v145.1a4.07,4.07,0,0,1-4.07,4.07H198.73a0,0,0,0,1,0,0V88.76A0,0,0,0,1,198.73,88.76Z" fill="#231f20"></path><path d="M222.22,242.5H198.73a.51.51,0,0,1-.5-.5V88.76a.51.51,0,0,1,.5-.5h23.49a4.58,4.58,0,0,1,4.57,4.57v145.1A4.58,4.58,0,0,1,222.22,242.5Zm-23-1h23a3.58,3.58,0,0,0,3.57-3.57V92.83a3.57,3.57,0,0,0-3.57-3.57h-23Z" fill="#231f20"></path><polygon points="111.98 85.18 101.92 89.88 107.88 238.92 118.71 238.92 111.98 85.18" fill="#231f20"></polygon><path d="M118.71,239.42H107.88a.5.5,0,0,1-.5-.48l-6-149a.49.49,0,0,1,.28-.47l10.07-4.7a.52.52,0,0,1,.47,0,.47.47,0,0,1,.24.41l6.73,153.74a.47.47,0,0,1-.14.37A.48.48,0,0,1,118.71,239.42Zm-10.35-1h9.83L111.52,86l-9.09,4.24Z" fill="#231f20"></path><path d="M205.75,238.26a9.93,9.93,0,0,1-7.18,9.23,151.65,151.65,0,0,1-81.23,0,9.93,9.93,0,0,1-7.18-9.23l-4.62-149.5A9.88,9.88,0,0,1,113,78.84a189.71,189.71,0,0,1,44.92-5,189.81,189.81,0,0,1,44.93,5,9.9,9.9,0,0,1,7.49,9.92Z" fill="#fff"></path><path d="M158,253.53A147.21,147.21,0,0,1,117.2,248a10.42,10.42,0,0,1-7.54-9.69L105,88.78a10.43,10.43,0,0,1,7.87-10.42c9.24-2.28,24.55-5,45-5s35.81,2.72,45.05,5a10.43,10.43,0,0,1,7.87,10.42l-4.62,149.5a10.42,10.42,0,0,1-7.54,9.69A147.29,147.29,0,0,1,158,253.53Zm0-179.17c-20.39,0-35.62,2.7-44.8,5A9.42,9.42,0,0,0,106,88.75l4.62,149.5a9.41,9.41,0,0,0,6.82,8.76,151.15,151.15,0,0,0,81,0,9.43,9.43,0,0,0,6.82-8.76h0l4.62-149.5a9.42,9.42,0,0,0-7.11-9.42C193.58,77.06,178.35,74.36,158,74.36Z" fill="#231f20"></path><rect x="117.17" y="92.72" width="81.56" height="62.63" rx="5.61" fill="#68e1fd"></rect><path d="M156.75,166.93a428.79,428.79,0,0,1-49-3,.5.5,0,0,1,.13-1c.65.09,65.82,8.45,100.09-3.22a.5.5,0,0,1,.32.94C194.1,165.5,174.71,166.93,156.75,166.93Z" fill="#231f20"></path><rect x="120.78" y="226.11" width="19.71" height="9.84" rx="1.89" fill="#68e1fd"></rect><path d="M138.59,236.45H122.67a2.39,2.39,0,0,1-2.39-2.39V228a2.39,2.39,0,0,1,2.39-2.39h15.92A2.39,2.39,0,0,1,141,228v6.06A2.39,2.39,0,0,1,138.59,236.45Zm-15.92-9.84a1.39,1.39,0,0,0-1.39,1.39v6.06a1.39,1.39,0,0,0,1.39,1.39h15.92a1.39,1.39,0,0,0,1.39-1.39V228a1.39,1.39,0,0,0-1.39-1.39Z" fill="#231f20"></path><rect x="148.1" y="226.11" width="19.71" height="9.84" rx="1.89" fill="#d1d3d4"></rect><path d="M165.92,236.45H150a2.39,2.39,0,0,1-2.39-2.39V228a2.39,2.39,0,0,1,2.39-2.39h15.93a2.39,2.39,0,0,1,2.39,2.39v6.06A2.39,2.39,0,0,1,165.92,236.45ZM150,226.61A1.39,1.39,0,0,0,148.6,228v6.06a1.39,1.39,0,0,0,1.39,1.39h15.93a1.39,1.39,0,0,0,1.39-1.39V228a1.39,1.39,0,0,0-1.39-1.39Z" fill="#231f20"></path><rect x="175.42" y="226.11" width="19.71" height="9.84" rx="1.89" fill="#68e1fd"></rect><path d="M193.24,236.45H177.31a2.39,2.39,0,0,1-2.39-2.39V228a2.39,2.39,0,0,1,2.39-2.39h15.93a2.39,2.39,0,0,1,2.39,2.39v6.06A2.39,2.39,0,0,1,193.24,236.45Zm-15.93-9.84a1.39,1.39,0,0,0-1.39,1.39v6.06a1.39,1.39,0,0,0,1.39,1.39h15.93a1.39,1.39,0,0,0,1.39-1.39V228a1.39,1.39,0,0,0-1.39-1.39Z" fill="#231f20"></path><path d="M138.59,220.7H122.67a2.39,2.39,0,0,1-2.39-2.39v-6.06a2.39,2.39,0,0,1,2.39-2.39h15.92a2.39,2.39,0,0,1,2.39,2.39v6.06A2.39,2.39,0,0,1,138.59,220.7Zm-15.92-9.84a1.39,1.39,0,0,0-1.39,1.39v6.06a1.39,1.39,0,0,0,1.39,1.39h15.92a1.39,1.39,0,0,0,1.39-1.39v-6.06a1.39,1.39,0,0,0-1.39-1.39Z" fill="#231f20"></path><path d="M165.92,220.7H150a2.39,2.39,0,0,1-2.39-2.39v-6.06a2.39,2.39,0,0,1,2.39-2.39h15.93a2.39,2.39,0,0,1,2.39,2.39v6.06A2.39,2.39,0,0,1,165.92,220.7ZM150,210.86a1.39,1.39,0,0,0-1.39,1.39v6.06A1.39,1.39,0,0,0,150,219.7h15.93a1.39,1.39,0,0,0,1.39-1.39v-6.06a1.39,1.39,0,0,0-1.39-1.39Z" fill="#231f20"></path><path d="M193.24,220.7H177.31a2.39,2.39,0,0,1-2.39-2.39v-6.06a2.39,2.39,0,0,1,2.39-2.39h15.93a2.39,2.39,0,0,1,2.39,2.39v6.06A2.39,2.39,0,0,1,193.24,220.7Zm-15.93-9.84a1.39,1.39,0,0,0-1.39,1.39v6.06a1.39,1.39,0,0,0,1.39,1.39h15.93a1.39,1.39,0,0,0,1.39-1.39v-6.06a1.39,1.39,0,0,0-1.39-1.39Z" fill="#231f20"></path><path d="M138.59,205H122.67a2.39,2.39,0,0,1-2.39-2.39V196.5a2.39,2.39,0,0,1,2.39-2.39h15.92A2.39,2.39,0,0,1,141,196.5v6.06A2.39,2.39,0,0,1,138.59,205Zm-15.92-9.84a1.39,1.39,0,0,0-1.39,1.39v6.06a1.39,1.39,0,0,0,1.39,1.39h15.92a1.39,1.39,0,0,0,1.39-1.39V196.5a1.39,1.39,0,0,0-1.39-1.39Z" fill="#231f20"></path><path d="M165.92,205H150a2.39,2.39,0,0,1-2.39-2.39V196.5a2.39,2.39,0,0,1,2.39-2.39h15.93a2.39,2.39,0,0,1,2.39,2.39v6.06A2.39,2.39,0,0,1,165.92,205ZM150,195.11a1.39,1.39,0,0,0-1.39,1.39v6.06A1.39,1.39,0,0,0,150,204h15.93a1.39,1.39,0,0,0,1.39-1.39V196.5a1.39,1.39,0,0,0-1.39-1.39Z" fill="#231f20"></path><path d="M193.24,205H177.31a2.39,2.39,0,0,1-2.39-2.39V196.5a2.39,2.39,0,0,1,2.39-2.39h15.93a2.39,2.39,0,0,1,2.39,2.39v6.06A2.39,2.39,0,0,1,193.24,205Zm-15.93-9.84a1.39,1.39,0,0,0-1.39,1.39v6.06a1.39,1.39,0,0,0,1.39,1.39h15.93a1.39,1.39,0,0,0,1.39-1.39V196.5a1.39,1.39,0,0,0-1.39-1.39Z" fill="#231f20"></path><path d="M138.59,189.08H122.67a2.4,2.4,0,0,1-2.39-2.39v-6.07a2.39,2.39,0,0,1,2.39-2.39h15.92a2.39,2.39,0,0,1,2.39,2.39v6.07A2.4,2.4,0,0,1,138.59,189.08Zm-15.92-9.85a1.39,1.39,0,0,0-1.39,1.39v6.07a1.39,1.39,0,0,0,1.39,1.39h15.92a1.39,1.39,0,0,0,1.39-1.39v-6.07a1.39,1.39,0,0,0-1.39-1.39Z" fill="#231f20"></path><path d="M165.92,189.08H150a2.4,2.4,0,0,1-2.39-2.39v-6.07a2.39,2.39,0,0,1,2.39-2.39h15.93a2.39,2.39,0,0,1,2.39,2.39v6.07A2.4,2.4,0,0,1,165.92,189.08ZM150,179.23a1.39,1.39,0,0,0-1.39,1.39v6.07a1.39,1.39,0,0,0,1.39,1.39h15.93a1.4,1.4,0,0,0,1.39-1.39v-6.07a1.4,1.4,0,0,0-1.39-1.39Z" fill="#231f20"></path><path d="M193.24,189.08H177.31a2.4,2.4,0,0,1-2.39-2.39v-6.07a2.39,2.39,0,0,1,2.39-2.39h15.93a2.39,2.39,0,0,1,2.39,2.39v6.07A2.4,2.4,0,0,1,193.24,189.08Zm-15.93-9.85a1.4,1.4,0,0,0-1.39,1.39v6.07a1.4,1.4,0,0,0,1.39,1.39h15.93a1.39,1.39,0,0,0,1.39-1.39v-6.07a1.39,1.39,0,0,0-1.39-1.39Z" fill="#231f20"></path><path d="M190.36,83.88V36.58l-5.91,4.78-5-5.35-6.22,5.07-4.95-5.91-5.58,5.77-5.12-5.77-5.35,5.54-5.44-5.54-4.69,5.3L135.63,36l-3.17,4-6.91-4.87V83.88Z" fill="#fff"></path><path d="M190.36,84.38H125.55a.5.5,0,0,1-.5-.5V35.17a.48.48,0,0,1,.27-.44.47.47,0,0,1,.51,0l6.53,4.6,2.87-3.65a.5.5,0,0,1,.68-.11L142,39.8l4.39-5a.48.48,0,0,1,.36-.17.5.5,0,0,1,.37.15L152.19,40l5-5.17a.53.53,0,0,1,.37-.15.46.46,0,0,1,.36.17l4.76,5.37,5.21-5.39a.5.5,0,0,1,.38-.15.5.5,0,0,1,.36.18l4.63,5.53,5.84-4.75a.5.5,0,0,1,.68,0l4.72,5,5.56-4.49a.5.5,0,0,1,.81.39v47.3A.5.5,0,0,1,190.36,84.38Zm-64.31-1h63.81V37.63l-5.1,4.12a.5.5,0,0,1-.68,0l-4.72-5-5.86,4.77a.5.5,0,0,1-.7-.07l-4.59-5.48L163,41.29a.51.51,0,0,1-.37.15.48.48,0,0,1-.37-.17l-4.76-5.36-5,5.14a.43.43,0,0,1-.36.16.55.55,0,0,1-.36-.15l-5.06-5.16-4.33,4.9a.51.51,0,0,1-.66.08l-6.05-4.19-2.88,3.66a.5.5,0,0,1-.68.1l-6.12-4.32Z" fill="#231f20"></path><path d="M119.74,83.88c1-.28,76.42,0,76.42,0" fill="#fff"></path><path d="M119.71,84.39a.51.51,0,0,1-.47-.37.51.51,0,0,1,.37-.62c1-.29,64-.07,76.56,0a.5.5,0,0,1,0,1h0c-25.75-.1-74.85-.22-76.32,0Z" fill="#231f20"></path><path d="M180.82,52.58H131.91a.52.52,0,1,1,0-1h48.91a.52.52,0,0,1,0,1Z" fill="#d1d3d4"></path><path d="M168.19,63.49H131.91a.52.52,0,1,1,0-1h36.28a.52.52,0,1,1,0,1Z" fill="#d1d3d4"></path><path d="M174.2,74.4H131.91a.52.52,0,1,1,0-1H174.2a.52.52,0,1,1,0,1Z" fill="#d1d3d4"></path><rect x="214.54" y="88.58" width="4.58" height="153.41" fill="#d1d3d4"></rect><path d="M219.12,242.5h-4.58a.5.5,0,0,1-.5-.5V88.58a.5.5,0,0,1,.5-.5h4.58a.51.51,0,0,1,.5.5V242A.51.51,0,0,1,219.12,242.5Zm-4.08-1h3.58V89.08H215Z" fill="#231f20"></path><path d="M331,232.54l-34.55,19.54-52-80.62c.52-4-.35-21.72,5.27-18.26s25,31.08,28.56,32.29,12.45-2,12.06-10.31-.47-22.16-8.38-23.59c-12-2.17-24.13,4.65-28.72,2.31s-7.86-9.16.46-13c9.51-4.4,29.11-5.72,44.34-2.38s23.59,35.6,22.24,58.44C322.75,211.84,329.16,225.84,331,232.54Z" fill="#fff"></path><path d="M296.43,252.58a.49.49,0,0,1-.42-.23l-52-80.62a.47.47,0,0,1-.08-.33c.11-.8.15-2.21.21-3.84.24-7.15.67-13.69,3.21-15.05a2.52,2.52,0,0,1,2.61.27c3,1.82,9.41,9.88,15.65,17.67,5.52,6.9,11.22,14,12.81,14.57s5.06,0,7.7-2a8.92,8.92,0,0,0,3.7-7.84l-.08-1.65c-.35-8.05-.87-20.21-7.89-21.48-6.46-1.17-13,.33-18.33,1.53-4.63,1-8.28,1.88-10.53.74-2.95-1.51-5-4.5-4.93-7.28,0-1.9,1-4.59,5.41-6.64,9.86-4.57,29.89-5.65,44.66-2.42,7.11,1.56,13.39,9.45,17.7,22.23a102.14,102.14,0,0,1,4.93,36.68c1.72,10.14,5.29,20,7.9,27.16,1.21,3.33,2.25,6.2,2.83,8.33a.49.49,0,0,1-.24.56l-34.55,19.54A.47.47,0,0,1,296.43,252.58Zm-51.5-81.24,51.66,80.07,33.81-19.12c-.59-2-1.57-4.75-2.7-7.86-2.63-7.24-6.23-17.15-7.95-27.4a.49.49,0,0,1,0-.12c1.27-21.39-6.61-54.59-21.84-57.92-14.59-3.2-34.34-2.14-44,2.35-3.12,1.44-4.79,3.43-4.83,5.75s1.76,5,4.39,6.37c1.92,1,5.59.14,9.84-.82,5.38-1.22,12.07-2.74,18.74-1.54,7.8,1.4,8.35,14.05,8.71,22.42l.08,1.64a10,10,0,0,1-4.1,8.69c-2.65,2-6.35,2.89-8.62,2.12-1.74-.6-6.18-6-13.27-14.89-5.9-7.37-12.58-15.72-15.39-17.45a1.58,1.58,0,0,0-1.61-.24c-2.25,1.21-2.52,9.34-2.69,14.2C245.07,169.14,245,170.48,244.93,171.34Z" fill="#231f20"></path><rect x="212.98" y="80.11" width="70.74" height="99.83" rx="8.16" transform="translate(-31.65 143.63) rotate(-30.42)" fill="#fff"></rect><path d="M246,188.47a8.67,8.67,0,0,1-7.48-4.28l-42.28-72a8.66,8.66,0,0,1,3.08-11.84L246.3,72.77a8.67,8.67,0,0,1,11.85,3.08l42.28,72a8.65,8.65,0,0,1-3.09,11.85l-46.93,27.56A8.62,8.62,0,0,1,246,188.47Zm4.63-115.89a7.57,7.57,0,0,0-3.86,1l-46.94,27.56a7.53,7.53,0,0,0-3.53,4.67,7.62,7.62,0,0,0,.8,5.81l42.28,72a7.66,7.66,0,0,0,10.48,2.72l46.94-27.55h0a7.67,7.67,0,0,0,2.73-10.48l-42.28-72a7.62,7.62,0,0,0-4.68-3.53A7.54,7.54,0,0,0,250.67,72.58Z" fill="#231f20"></path><rect x="231.23" y="86.62" width="25.53" height="21.52" rx="5.9" transform="translate(-15.72 136.93) rotate(-30.42)" fill="#68e1fd"></rect><rect x="277.85" y="130.21" width="7.26" height="25.97" rx="3.63" transform="matrix(0.86, -0.51, 0.51, 0.86, -33.76, 162.21)" fill="#d1d3d4"></rect><rect x="211.66" y="103.1" width="7.51" height="17.74" rx="1.83" transform="translate(-27.04 124.47) rotate(-30.42)" fill="#d1d3d4"></rect><rect x="222.55" y="121.64" width="7.51" height="17.74" rx="1.83" transform="translate(-34.93 132.53) rotate(-30.42)" fill="#d1d3d4"></rect><rect x="233.43" y="140.17" width="7.51" height="17.74" rx="1.83" transform="translate(-42.81 140.59) rotate(-30.42)" fill="#d1d3d4"></rect><rect x="244.31" y="158.71" width="7.51" height="17.74" rx="1.83" transform="translate(-50.7 148.65) rotate(-30.42)" fill="#d1d3d4"></rect><path d="M253.66,185.8s-13.82-21.47-15.84-25.54c-3.29-6.63,7.05-11.06,10.31-8.08,2.31,2.11,20.93,23.5,23.26,26.24" fill="#fff"></path><path d="M253.66,186.3a.51.51,0,0,1-.42-.23c-.56-.87-13.86-21.53-15.87-25.59-1.4-2.82-.61-5.71,2.1-7.75s6.89-2.84,9-.92c2.41,2.2,21.26,23.87,23.32,26.29a.5.5,0,1,1-.77.65c-2.59-3.06-21-24.16-23.22-26.2-1.52-1.39-5.2-.92-7.72,1a5,5,0,0,0-1.8,6.52c2,4,15.67,25.28,15.81,25.49a.49.49,0,0,1-.15.69A.43.43,0,0,1,253.66,186.3Z" fill="#231f20"></path><polygon points="346.29 243.25 327.83 206.94 276.82 229.08 286.63 267.33 346.29 243.25" fill="#231f20"></polygon><path d="M286.63,267.83a.59.59,0,0,1-.22-.05.52.52,0,0,1-.26-.32l-9.81-38.25a.51.51,0,0,1,.28-.59l51-22.14a.5.5,0,0,1,.64.24L346.73,243a.49.49,0,0,1,0,.41.48.48,0,0,1-.28.28L286.82,267.8A.58.58,0,0,1,286.63,267.83Zm-9.22-38.46L287,266.65,345.6,243l-18-35.4Z" fill="#231f20"></path></g></svg>