<svg id="Layer_2" data-name="Layer 2" xmlns="http://www.w3.org/2000/svg" viewBox="0 0 400 300" width="406" height="306" class="illustration styles_illustrationTablet__1DWOa"><title>PP</title><path d="M194.73,278.19,29,180.22c-5.28-3-9.8-7.83-4.66-11L190.67,73.33c2.5-1.55,6.29-2.56,8.82-1.09l174,101c5.28,3.06,6.22,11.63.94,14.69L216.58,278A22,22,0,0,1,194.73,278.19Z" fill="#003a75"></path><path d="M196.33,253.77l-126-74.46c-4-2.25-7.45-6-3.54-8.37L193.24,98.06c1.9-1.17,4.78-1.95,6.71-.83L332.2,174c4,2.33,4.73,8.84.72,11.16l-120,68.5A16.75,16.75,0,0,1,196.33,253.77Z" fill="none" stroke="#f2f2f2" stroke-miterlimit="10"></path><path d="M196.4,228.47l-93.47-55.24c-3-1.67-5.53-4.41-2.63-6.21L194.11,113c1.41-.87,3.54-1.44,5-.61l98.12,56.94c3,1.73,3.51,6.56.53,8.28l-89,50.82A12.43,12.43,0,0,1,196.4,228.47Z" fill="none" stroke="#f2f2f2" stroke-miterlimit="10"></path><path d="M197.43,200.8l-54.79-32.38c-1.74-1-3.24-2.59-1.54-3.64l55-31.69a3.09,3.09,0,0,1,2.92-.36l57.52,33.38c1.75,1,2.06,3.84.31,4.86l-52.18,29.79A7.29,7.29,0,0,1,197.43,200.8Z" fill="#68e1fd"></path><polygon points="151.24 108.57 190.29 82.36 215.28 82.36 247.74 108.57 199.37 137.09 151.24 108.57" fill="#8aa80e"></polygon><path d="M199.37,132c-.38-.34,0-88.39,0-88.39l49.39,59.88Z" fill="#9dcb00"></path><polygon points="199.37 132.01 151.24 103.78 199.37 43.62 199.37 132.01" fill="#7c9900"></polygon><polygon points="247.74 108.57 199.37 175.11 199.37 137.09 247.74 108.57" fill="#7c9900"></polygon><polygon points="199.37 176.24 151.24 108.57 199.37 137.09 199.37 176.24" fill="#9dcb00"></polygon><path d="M72.3,188,49.52,174.55c-.73-.41-1.35-1.08-.64-1.51l22.86-13.18a1.28,1.28,0,0,1,1.21-.15l23.91,13.88a1.21,1.21,0,0,1,.13,2L75.31,188A3,3,0,0,1,72.3,188Z" fill="#68e1fd"></path><path d="M204.29,266.8l-22.78-13.46c-.73-.41-1.35-1.08-.64-1.51l22.86-13.18a1.28,1.28,0,0,1,1.21-.15l23.91,13.88a1.21,1.21,0,0,1,.13,2L207.3,266.78A3,3,0,0,1,204.29,266.8Z" fill="#68e1fd"></path><path d="M323.85,192.78l-22.78-13.46c-.73-.41-1.35-1.08-.64-1.51l22.86-13.18a1.28,1.28,0,0,1,1.21-.15l23.91,13.88a1.21,1.21,0,0,1,.13,2l-21.69,12.38A3,3,0,0,1,323.85,192.78Z" fill="#68e1fd"></path><polygon points="311.03 157.25 321.91 149.94 328.88 149.94 337.94 157.25 324.45 165.2 311.03 157.25" fill="#8aa80e"></polygon><path d="M324.45,163.79c-.11-.09,0-24.65,0-24.65l13.77,16.7Z" fill="#9dcb00"></path><polygon points="324.45 163.79 311.03 155.91 324.45 139.14 324.45 163.79" fill="#7c9900"></polygon><polygon points="337.94 157.25 324.45 175.81 324.45 165.2 337.94 157.25" fill="#7c9900"></polygon><polygon points="324.45 176.12 311.03 157.25 324.45 165.2 324.45 176.12" fill="#9dcb00"></polygon><polygon points="191.42 235.84 202.31 228.53 209.28 228.53 218.33 235.84 204.84 243.79 191.42 235.84" fill="#8aa80e"></polygon><path d="M204.84,242.37c-.11-.09,0-24.65,0-24.65l13.77,16.7Z" fill="#9dcb00"></path><polygon points="204.84 242.37 191.42 234.5 204.84 217.72 204.84 242.37" fill="#7c9900"></polygon><polygon points="218.33 235.84 204.84 254.39 204.84 243.79 218.33 235.84" fill="#7c9900"></polygon><polygon points="204.84 254.71 191.42 235.84 204.84 243.79 204.84 254.71" fill="#9dcb00"></polygon><polygon points="59.21 158.03 70.1 150.72 77.06 150.72 86.12 158.03 72.63 165.99 59.21 158.03" fill="#8aa80e"></polygon><path d="M72.63,164.57c-.11-.09,0-24.65,0-24.65l13.77,16.7Z" fill="#9dcb00"></path><polygon points="72.63 164.57 59.21 156.7 72.63 139.92 72.63 164.57" fill="#7c9900"></polygon><polygon points="86.12 158.03 72.63 176.59 72.63 165.99 86.12 158.03" fill="#7c9900"></polygon><polygon points="72.63 176.9 59.21 158.03 72.63 165.99 72.63 176.9" fill="#9dcb00"></polygon></svg>